<svg width="35" height="36" viewBox="0 0 35 36" fill="none" xmlns="http://www.w3.org/2000/svg">
<path d="M20.5376 16.0025L31.9589 20.7446C32.239 20.8608 32.4417 21.113 32.4958 21.4123L32.7147 22.6229C32.8304 23.2623 32.2466 23.798 31.6238 23.6241L19.315 20.1864C18.8461 20.0554 18.5674 19.5678 18.6924 19.0973L19.361 16.5823C19.4969 16.0709 20.0481 15.7993 20.5376 16.0025Z" fill="#262626" stroke="#262626" stroke-width="0.97949"/>
<path d="M14.4624 15.9795L3.04108 20.7216C2.76104 20.8379 2.55834 21.09 2.5042 21.3894L2.28527 22.5999C2.16964 23.2393 2.75341 23.775 3.37621 23.6011L15.685 20.1634C16.1539 20.0325 16.4326 19.5449 16.3076 19.0744L15.639 16.5594C15.5031 16.048 14.9519 15.7763 14.4624 15.9795Z" fill="#262626" stroke="#262626" stroke-width="0.97949"/>
<path d="M24.4526 31.6106L25.1975 33.7461C25.3227 34.105 25.0092 34.4634 24.6369 34.3872L17.4397 32.9138C17.2432 32.8736 17.0406 32.874 16.8443 32.915L9.7983 34.3883C9.43041 34.4653 9.11656 34.1162 9.23199 33.7586L9.92338 31.6162C9.97452 31.4577 10.1027 31.3361 10.2636 31.2933L17.0184 29.4967C17.1004 29.4749 17.1868 29.4748 17.2689 29.4964L24.1148 31.2983C24.2723 31.3398 24.3989 31.4568 24.4526 31.6106Z" fill="#262626" stroke="#262626" stroke-width="0.97949"/>
<path d="M19.6361 3.18204V30.158H14.6772V3.18205C14.6772 1.81271 15.7873 0.702636 17.1567 0.702636C18.526 0.702636 19.6361 1.8127 19.6361 3.18204Z" fill="#262626" stroke="#262626" stroke-width="0.97949"/>
</svg>
